<svg xmlns="http://www.w3.org/2000/svg" id="Layer_1" x="0" y="0" version="1.1" viewBox="0 0 200 200" xml:space="preserve"><style>.st0{fill:#706f6f}</style><path d="M55.5 132.9V77.7c0-.2 0-.5.1-.7 0-1.6.1-3.2.1-4.8 0-.6.2-1.2.6-1.7 1.1-1.6 2.6-2.6 4.7-2.6 2.8 0 5.6 0 8.4-.1h.4v.6c0 1.8 0 3.7.1 5.5.1 2.2 1.9 3.8 4.1 3.9 2.2.1 4.2-2.1 4.3-3.8.1-1.9.1-3.7.2-5.6v-.5h9.1v2.6c0 1.3 0 2.6.2 3.9.3 2 2.3 3.5 4.3 3.4 2.1-.1 3.9-1.9 4-4 .1-1.8.1-3.7.2-5.5v-.5h8.9v.6c0 1.8 0 3.7.1 5.5.2 2.2 2.1 3.9 4.3 3.9 2.3 0 4.1-1.8 4.2-4.1.1-1.8.1-3.6.1-5.4v-.5h9.1v.6c0 1.8 0 3.6.2 5.4.2 2.6 2.7 4.4 5.2 3.8 1.9-.5 3.1-2 3.2-4.1.1-1.7.1-3.5.2-5.2v-.5h9.5c.1 0 .3 0 .4.1.5.2.9.4 1.3.7 1.4.8 2.2 2 2.3 3.6.1 1 .1 1.9.1 2.9 0 10.6.1 21.3 0 31.9 0 4.3-.1 8.6-.2 12.9 0 1-.5 1.8-1.2 2.4-6.2 4.6-12.4 9.3-18.5 13.9-.8.6-1.6.8-2.6.8-5.7 0-11.4.1-17.2.1-15.2 0-30.4 0-45.6.1-.2 0-.3 0-.5-.1-1.8-.7-3.2-1.8-4-3.7.1-.1 0-.3-.1-.5zm87.4-14.1V84.2h-.6c-8 0-15.9-.1-23.9 0-19.8 0-39.6 0-59.4.1-.7 0-.6-.1-.6.6 0 7.7-.1 15.3-.1 23 0 7.9.1 15.8.1 23.7 0 1.3 1.5 2.9 2.9 2.9 1.6 0 3.1.1 4.7.1h56.6v-.6c.1-3.5.1-7 .3-10.5.1-2.2 1.7-4 3.7-4.3.5-.1.9-.1 1.4-.1 3.3-.1 6.7-.1 10-.2 1.4-.1 3.1-.1 4.9-.1zm-2.1 3c0-.1-.1-.1-.1-.2h-12.6c-1.5 0-3 .8-2.9 2.8 0 2.6 0 5.2-.1 7.8 0 .2.1.3.1.6 5.4-3.7 10.5-7.4 15.6-11z" class="st0"/><path d="M75.4 68.7v4.7c0 1-.7 1.5-1.7 1.3-.5-.1-.7-.3-.8-.9 0-.3-.1-.6-.1-1v-8.7c0-.3 0-.5.1-.8.1-.6.5-1 1.2-1s1.2.3 1.3.9c.1.8.1 1.6.1 2.4-.1 1.2-.1 2.2-.1 3.1zM90.6 68.6v-4.7c0-1.2.8-1.4 1.5-1.3.6 0 1 .4 1 .9.1.7.1 1.4.1 2.1v8c-.1 1-.9 1.5-1.8 1.2-.4-.1-.6-.3-.6-.8 0-.4-.1-.9-.1-1.3-.1-1.4-.1-2.7-.1-4.1zM128.7 68.7v4.9c-.1 1-.9 1.4-1.8 1.1-.3-.1-.6-.3-.6-.7 0-.4-.1-.7-.1-1.1v-9.1c0-1.2.8-1.3 1.5-1.3.6 0 1 .4 1 1 .1.7.1 1.4.1 2.2 0 1-.1 2-.1 3zM108.3 68.8v-4.7c0-.9.3-1.2.9-1.4.6-.2 1.6.1 1.6 1 0 .2.1.5.1.7V73.7c-.1 1-1.2 1.5-2 1-.2-.1-.3-.4-.4-.6-.1-.3-.1-.6-.1-.9-.1-1.5-.1-3-.1-4.4zM90.3 132.1c-3.7.4-7.1-3.2-7.1-7.2 0-3.5 3.5-6.9 6.8-7 4.2-.1 7.8 3.7 7.3 7.2.5 3.4-3.2 7.4-7 7zm-4.3-7.8c-.2.2-.3.4-.4.5-.3.3-.3.5.1.8 1.3 1.1 2.7 2.1 4 3.2.3.2.5.2.7 0 1.7-1.7 3.5-3.4 5.2-5.2 0 0 0-.1 0 0l-.9-.9-4.7 4.7c-1.4-1-2.7-2-4-3.1zM118 94.2c.3 3.4-2.8 7.1-7 7.1-4.4 0-7-3.9-7.1-7-.1-4.2 3.6-7.3 7-7.3 3.9.1 7.5 3.5 7.1 7.2zm-11.3-.7c-.2.2-.3.5-.5.7-.2.2-.2.4.1.7.3.3.6.5.9.8 1.1.9 2.3 1.8 3.4 2.7 1.9-1.9 3.7-3.8 5.6-5.6l-.4-.4c-.3-.3-.5-.3-.8 0-.7.7-1.5 1.5-2.3 2.2l-2.1 2.1c-1.3-1.2-2.6-2.2-3.9-3.2zM137.1 97.2h-11.7v-7.1h11.7v7.1zM64.1 97.2v-7.1h11.7v7.1H64.1zM75.8 121.8v7H64.1v-7h11.7zM104.9 121.7h11.7v7h-11.2c-.4 0-.5-.1-.5-.5v-6c-.1-.1 0-.3 0-.5zM96.1 90.1v7.1H84.6v-7.1h11.5zM64.1 106h11.7v7H64.1v-7zM84.4 112.9v-7h11.7v7H84.4zM104.9 106h11.7v7h-11.7v-7zM125.4 106h11.7v7h-11.7v-7z" class="st0"/></svg>