<svg xmlns="http://www.w3.org/2000/svg" id="Layer_1" x="0" y="0" version="1.1" viewBox="0 0 200 200" xml:space="preserve"><style>.st0{fill:#706f6f}</style><path d="M103.1 64.9h7c2.4 0 4.1 1.7 4.1 4.1v6.3h22.4v29.6c-9.8 1-19.6 2.2-29.5 3.2v-2.5-.7c0-.9-.5-1.4-1.4-1.4H95.2c-.8 0-1.4.5-1.4 1.4v3.2c-9.9-.9-19.7-2.1-29.5-3.2V75.3h22.4v-.5V69c0-2.1 1.4-3.7 3.4-4h.7c4.1-.1 8.2-.1 12.3-.1m0-3.9H90.8c-.4 0-.8 0-1.2.1-3.9.6-6.6 3.8-6.7 7.8v2.5H64.2c-2.1 0-3.9 1.7-3.9 3.9v29.6c0 2 1.5 3.6 3.5 3.8 3.9.4 7.9.9 11.8 1.3 5.8.7 11.8 1.3 17.8 1.9h.4c1 0 1.9-.4 2.6-1 .8-.7 1.3-1.8 1.3-2.8v-.8H103.3v.7c0 1.1.5 2.1 1.3 2.8.7.6 1.6 1 2.6 1h.4c6-.6 12.1-1.2 17.9-1.9 3.8-.4 7.8-.9 11.6-1.3 2-.2 3.5-1.9 3.5-3.8V75.2c0-2.1-1.7-3.9-3.9-3.9H118v-2.4c0-4.5-3.4-7.9-7.9-7.9h-7z" class="st0"/><path d="M68.4 109.2c8.5.9 16.9 1.8 25.4 2.8v3.5c0 .9.5 1.5 1.5 1.5h10.4c.9 0 1.5-.5 1.5-1.5V112c8.5-.9 16.9-1.8 25.4-2.8v26.1h-64c-.2-8.7-.2-17.4-.2-26.1m0-3.9c-.9 0-1.9.3-2.6 1-.8.7-1.3 1.8-1.3 2.9v26.1c0 2.1 1.7 3.9 3.9 3.9h64c2.1 0 3.9-1.7 3.9-3.9v-26.1c0-1.1-.5-2.1-1.3-2.9-.7-.6-1.6-1-2.6-1h-.4l-6 .6-19.4 2.1c-2 .2-3.4 1.9-3.4 3.8v1h-5.6v-1c0-2-1.5-3.6-3.4-3.8l-14.3-1.6-11.1-1.2c-.1.1-.3.1-.4.1z" class="st0"/></svg>