<svg xmlns="http://www.w3.org/2000/svg" viewBox="0 0 200 200"><path fill="#706f6f" d="M100.1 143.7c-1.1 0-2-.5-2.5-1.4-.1-.2-.2-.3-.3-.4l-19.1-34.4c-2.5-4.5-4.3-8.9-5.6-13.5-.8-2.9-1.1-6-.9-9.9.3-7.5 3.3-14.1 8.9-19.5 4.1-3.9 8.9-6.5 14.4-7.6.7-.1 1.4-.2 2-.3.3 0 .6-.1.8-.1l.2-.1c.2 0 .4-.1.6-.1H101.8l.8.1c.7.1 1.4.2 2 .3 5 .9 9.5 3 13.4 6.3 5.3 4.5 8.7 10 9.9 16.5 1.1 5.8.7 11.5-1.2 17-1.3 3.8-2.9 7.4-4.7 10.7-4.8 8.6-9.6 17.2-14.3 25.8l-4.9 8.8c-.1.1-.1.3-.3.4l-.1.1c-.3.7-1.3 1.3-2.3 1.3zM99 62.3c-.1 0-.2 0-.3.1-.3 0-.6.1-1 .1-.6.1-1.1.1-1.6.2-4.4.9-8.2 2.9-11.4 6-4.5 4.4-6.8 9.4-7.1 15.4-.1 3.3.1 5.8.7 8.1 1.1 4.1 2.8 8.1 5 12.2l16.7 30.1 2.5-4.4c4.8-8.6 9.6-17.2 14.3-25.8 1.7-3 3.1-6.3 4.3-9.7 1.5-4.5 1.9-9.2 1-14-1-5-3.6-9.4-7.9-13-3.1-2.6-6.7-4.3-10.6-5-.6-.1-1.2-.2-1.7-.3-.2 0-.5-.1-.7-.1H99zm1.2 36.9c-7.7 0-13.9-6.3-13.9-14 0-3.8 1.5-7.4 4.1-10 2.6-2.6 6.1-4.1 9.8-4.1 7.7 0 13.9 6.3 13.9 14.1 0 7.7-6.2 14-13.9 14zm0-22.1c-2.1 0-4.1.8-5.6 2.3-1.5 1.5-2.4 3.6-2.4 5.8 0 4.4 3.6 8.1 7.9 8.1 4.4 0 7.9-3.6 7.9-8.1.1-4.5-3.5-8.1-7.8-8.1z"/></svg>